<svg xmlns="http://www.w3.org/2000/svg" style="display: none;">
    <defs>
    <symbol id="icon-location" viewBox="0 0 256 256" color = "currentColor">
     <path d="M240,208h-8V88a8,8,0,0,0-8-8H160a8,8,0,0,0-8,8v40H104V40a8,8,0,0,0-8-8H32a8,8,0,0,0-8,8V208H16a8,8,0,0,0,0,16H240a8,8,0,0,0,0-16ZM168,96h48V208H168Zm-16,48v64H104V144ZM40,48H88V208H40ZM72,72V88a8,8,0,0,1-16,0V72a8,8,0,0,1,16,0Zm0,48v16a8,8,0,0,1-16,0V120a8,8,0,0,1,16,0Zm0,48v16a8,8,0,0,1-16,0V168a8,8,0,0,1,16,0Zm48,16V168a8,8,0,0,1,16,0v16a8,8,0,0,1-16,0Zm64,0V168a8,8,0,0,1,16,0v16a8,8,0,0,1-16,0Zm0-48V120a8,8,0,0,1,16,0v16a8,8,0,0,1-16,0Z"></path>
    </symbol>
    <symbol id="icon-phone" viewBox="0 0 24 24" color = "currentColor">
      <rect x="5" y="2" width="14" height="20" rx="2" ry="2" fill="none" stroke="currentColor" stroke-linecap="round" stroke-linejoin="round" stroke-width="2"/>
      <line x1="12" y1="18" x2="12" y2="22" fill="none" stroke="currentColor" stroke-linecap="round" stroke-linejoin="round" stroke-width="2"/>
    </symbol>
    <symbol id="icon-mail" viewBox="0 0 24 24" fill = "currentColor">
      <path d="M3 7a2 2 0 0 1 2 -2h14a2 2 0 0 1 2 2v10a2 2 0 0 1 -2 2h-14a2 2 0 0 1 -2 -2v-10z" fill="none" stroke="currentColor" stroke-linecap="round" stroke-linejoin="round" stroke-width="2"/>
      <path d="M3 7l9 6l9 -6" fill="none" stroke="currentColor" stroke-linecap="round" stroke-linejoin="round" stroke-width="2"/>
    </symbol>
    <symbol id="icon-hamburger-open" viewBox="0 0 256 256" fill = "currentColor">
        <rect width="256" height="256" fill="none"/><line x1="40" y1="128" x2="216" y2="128" fill="none" stroke="currentColor" stroke-linecap="round" stroke-linejoin="round" stroke-width="16"/><line x1="40" y1="64" x2="216" y2="64" fill="none" stroke="currentColor" stroke-linecap="round" stroke-linejoin="round" stroke-width="16"/><line x1="40" y1="192" x2="216" y2="192" fill="none" stroke="currentColor" stroke-linecap="round" stroke-linejoin="round" stroke-width="16"/>
    </symbol>
    <symbol id="icon-hamburger-close" viewBox="0 0 256 256" fill = "currentColor">
        <path d="M205.66,194.34a8,8,0,0,1-11.32,11.32L128,139.31,61.66,205.66a8,8,0,0,1-11.32-11.32L116.69,128,50.34,61.66A8,8,0,0,1,61.66,50.34L128,116.69l66.34-66.35a8,8,0,0,1,11.32,11.32L139.31,128Z"></path>
    </symbol>
    <symbol id="icon-close" viewBox="0 0 256 256" fill = "currentColor">
        <path stroke = "#8D8080" stroke-width = "6" d="M205.66,194.34a8,8,0,0,1-11.32,11.32L128,139.31,61.66,205.66a8,8,0,0,1-11.32-11.32L116.69,128,50.34,61.66A8,8,0,0,1,61.66,50.34L128,116.69l66.34-66.35a8,8,0,0,1,11.32,11.32L139.31,128Z"></path>
    </symbol>
    <symbol id = "icon-arrow-right" viewBox="0 0 256 256" fill = "currentColor">
       <path  stroke = "#8D8080" stroke-width = "6" d="M184.49,136.49l-80,80a12,12,0,0,1-17-17L159,128,87.51,56.49a12,12,0,1,1,17-17l80,80A12,12,0,0,1,184.49,136.49Z" fill = "currentColor"></path>
       <path  stroke = "#8D8080" stroke-width = "6" fill = "currentColor" d="M181.66,133.66l-80,80a8,8,0,0,1-11.32-11.32L164.69,128,90.34,53.66a8,8,0,0,1,11.32-11.32l80,80A8,8,0,0,1,181.66,133.66Z"></path>
    </symbol>
    <symbol id = "icon-arrow-left" viewBox="0 0 256 256" fill = "currentColor">
        <path  stroke = "#8D8080" stroke-width = "6" d="M168.49,199.51a12,12,0,0,1-17,17l-80-80a12,12,0,0,1,0-17l80-80a12,12,0,0,1,17,17L97,128Z" fill = "currentColor"></path>
    </symbol>
    </defs>
</svg>
